# xmcd
#
# Track frame offsets: 
#        150
#        12163
#        26027
#        41028
#        57843
#        77345
#        89694
#        101516
#        111113
#        127129
#        144639
#        163316
#
# Disc length: 2322 seconds
#
# Revision: 0
# Processed by: cddbd v1.5.2PL0 Copyright (c) Steve Scherf et al.
# Submitted via: ExactAudioCopyFreeDBPlugin 1.0
#
DISCID=a109100c
DTITLE=Jamie O'Neal - He'd Send For Her
DYEAR=2005
DGENRE=Country
TTITLE0=When I Think About Angels
TTITLE1=There Is No Arizona
TTITLE2=Trying To Find Atlantis
TTITLE3=To Be With You
TTITLE4=Devil On The Left
TTITLE5=I Love My Life
TTITLE6=Frantic
TTITLE7=Girlfriends
TTITLE8=When Did You Know
TTITLE9=Ready When It Comes
TTITLE10=Naïve
TTITLE11=Arizona Breakdown
EXTD=
EXTT0=
EXTT1=
EXTT2=
EXTT3=
EXTT4=
EXTT5=
EXTT6=
EXTT7=
EXTT8=
EXTT9=
EXTT10=
EXTT11=
PLAYORDER=
